{
.appVersion = "3058";
DisplayStrings = (

glyphs = (
{
glyphname = A;
lastChange = "2021-05-28 11:52:27 +0000";
layers = (
{
hints = (
{
horizontal = 1;
origin = "{0, 8}";
target = "{0, 22}";
type = Stem;
},
{
origin = "{0, 0}";
target = "{0, 17}";
type = Stem;
}
);
layerId = "6F88C01E-B907-4531-B067-43292AD644AF";
paths = (
{
closed = 1;
nodes = (
"50.119 8.907 LINE SMOOTH",
"49.34 3.563 OFFCURVE",
"52.42 0 OFFCURVE",
"57.82 0 CURVE SMOOTH",
"167.82 0 LINE SMOOTH",
"172.62 0 OFFCURVE",
"176.207 3.177 OFFCURVE",
"176.786 7.942 CURVE SMOOTH",
"248.82 600 LINE",
"348.82 600 LINE",
"420.854 7.942 LINE SMOOTH",
"421.433 3.177 OFFCURVE",
"425.02 0 OFFCURVE",
"429.82 0 CURVE SMOOTH",
"539.82 0 LINE SMOOTH",
"545.22 0 OFFCURVE",
"548.306 3.563 OFFCURVE",
"547.534 8.908 CURVE SMOOTH",
"453.462 660.17 LINE SMOOTH",
"448.277 696.068 OFFCURVE",
"420.64 720 OFFCURVE",
"384.369 720 CURVE SMOOTH",
"214.272 720 LINE SMOOTH",
"178.001 720 OFFCURVE",
"150.331 696.073 OFFCURVE",
"145.097 660.182 CURVE SMOOTH"
);
}
);
width = 597.65;
}
);
leftKerningGroup = A;
rightKerningGroup = A;
unicode = 0041;
},
{
glyphname = B;
lastChange = "2021-05-26 10:06:08 +0000";
layers = (
{
hints = (
{
horizontal = 1;
origin = "{0, 24}";
target = "{0, 27}";
type = Stem;
},
{
horizontal = 1;
origin = "{0, 8}";
target = "{0, 32}";
type = Stem;
},
{
origin = "{0, 8}";
target = "{0, 25}";
type = Stem;
}
);
layerId = "6F88C01E-B907-4531-B067-43292AD644AF";
paths = (
{
closed = 1;
nodes = (
"60 712 LINE SMOOTH",
"60 716.8 OFFCURVE",
"63.2 720 OFFCURVE",
"68 720 CURVE SMOOTH",
"320.012 720 LINE SMOOTH",
"356.005 720 OFFCURVE",
"380 696.005 OFFCURVE",
"380 660.013 CURVE SMOOTH",
"380 439 LINE",
"480.012 439 LINE SMOOTH",
"516.005 439 OFFCURVE",
"540 415.005 OFFCURVE",
"540 379.012 CURVE SMOOTH",
"540 59.988 LINE SMOOTH",
"540 23.995 OFFCURVE",
"516.005 0 OFFCURVE",
"480.012 0 CURVE SMOOTH",
"68 0 LINE SMOOTH",
"63.2 0 OFFCURVE",
"60 3.2 OFFCURVE",
"60 8 CURVE SMOOTH",
"60 110 LINE SMOOTH",
"60 114.8 OFFCURVE",
"63.2 118 OFFCURVE",
"68 118 CURVE SMOOTH",
"420 118 LINE",
"420 321 LINE",
"268 321 LINE SMOOTH",
"263.2 321 OFFCURVE",
"260 324.2 OFFCURVE",
"260 329 CURVE SMOOTH",
"260 602 LINE",
"68 602 LINE SMOOTH",
"63.2 602 OFFCURVE",
"60 605.2 OFFCURVE",
"60 610 CURVE SMOOTH"
);
}
);
width = 610;
}
);
unicode = 0042;
},
{
glyphname = C;
lastChange = "2021-05-27 10:19:29 +0000";
layers = (
{
hints = (
{
horizontal = 1;
origin = "{0, 0}";
target = "{0, 12}";
type = Stem;
},
{
origin = "{0, 25}";
target = "{0, 18}";
type = Stem;
}
);
layerId = "6F88C01E-B907-4531-B067-43292AD644AF";
paths = (
{
closed = 1;
nodes = (
"70 660.012 LINE SMOOTH",
"70 696.005 OFFCURVE",
"93.993 720 OFFCURVE",
"129.982 720 CURVE SMOOTH",
"450 720 LINE SMOOTH",
"486 720 OFFCURVE",
"510 696 OFFCURVE",
"510 660 CURVE SMOOTH",
"510 610 LINE SMOOTH",
"510 605.2 OFFCURVE",
"506.8 602 OFFCURVE",
"502 602 CURVE SMOOTH",
"190 602 LINE",
"190 118 LINE",
"502 118 LINE SMOOTH",
"506.8 118 OFFCURVE",
"510 114.8 OFFCURVE",
"510 110 CURVE SMOOTH",
"510 60 LINE SMOOTH",
"510 24 OFFCURVE",
"486 0 OFFCURVE",
"450 0 CURVE SMOOTH",
"129.982 0 LINE SMOOTH",
"93.993 0 OFFCURVE",
"70 23.995 OFFCURVE",
"70 59.988 CURVE SMOOTH"
);
}
);
width = 570;
}
);
leftKerningGroup = O;
rightKerningGroup = C;
unicode = 0043;
},
{
glyphname = D;
lastChange = "2021-05-27 10:16:14 +0000";
layers = (
{
hints = (
{
horizontal = 1;
origin = "{0, 3}";
target = "{0, 11}";
type = Stem;
},
{
origin = "{0, 8}";
target = "{0, 9}";
type = Stem;
}
);
layerId = "6F88C01E-B907-4531-B067-43292AD644AF";
paths = (
{
closed = 1;
nodes = (
"70 472.251 LINE SMOOTH",
"70 476.901 OFFCURVE",
"73.099 480 OFFCURVE",
"77.749 480 CURVE SMOOTH",
"182 480 LINE SMOOTH",
"186.8 480 OFFCURVE",
"190 476.8 OFFCURVE",
"190 472 CURVE SMOOTH",
"190 118 LINE",
"430 118 LINE",
"430 602 LINE",
"77 602 LINE SMOOTH",
"72.2 602 OFFCURVE",
"69 605.2 OFFCURVE",
"69 610 CURVE SMOOTH",
"69 712 LINE SMOOTH",
"69 716.8 OFFCURVE",
"72.197 720 OFFCURVE",
"76.993 720 CURVE SMOOTH",
"490.011 720 LINE SMOOTH",
"526.004 720 OFFCURVE",
"550 696.005 OFFCURVE",
"550 660.012 CURVE SMOOTH",
"550 59.988 LINE SMOOTH",
"550 23.995 OFFCURVE",
"526.005 0 OFFCURVE",
"490.012 0 CURVE SMOOTH",
"78 0 LINE SMOOTH",
"73.2 0 OFFCURVE",
"70 3.2 OFFCURVE",
"70 8 CURVE SMOOTH"
);
}
);
width = 620;
}
);
leftKerningGroup = O;
rightKerningGroup = O;
unicode = 0044;
},
{
glyphname = E;
lastChange = "2021-05-26 10:59:20 +0000";
layers = (
{
hints = (
{
horizontal = 1;
origin = "{1, 17}";
target = "{1, 16}";
type = Stem;
},
{
horizontal = 1;
origin = "{1, 7}";
target = "{0, 0}";
type = Stem;
},
{
origin = "{1, 3}";
target = "{1, 22}";
type = Stem;
}
);
layerId = "6F88C01E-B907-4531-B067-43292AD644AF";
paths = (
{
closed = 1;
nodes = (
"78 601 LINE SMOOTH",
"73.2 601 OFFCURVE",
"70 604.2 OFFCURVE",
"70 609 CURVE SMOOTH",
"70 659.549 LINE SMOOTH",
"70 695.819 OFFCURVE",
"94.181 720 OFFCURVE",
"130.451 720 CURVE SMOOTH",
"502 720 LINE SMOOTH",
"506.8 720 OFFCURVE",
"510 716.8 OFFCURVE",
"510 712 CURVE SMOOTH",
"510 609 LINE SMOOTH",
"510 604.2 OFFCURVE",
"506.8 601 OFFCURVE",
"502 601 CURVE SMOOTH"
);
},
{
closed = 1;
nodes = (
"130.451 0 LINE SMOOTH",
"94.181 0 OFFCURVE",
"70 24.181 OFFCURVE",
"70 60.452 CURVE SMOOTH",
"70 411 LINE SMOOTH",
"70 415.8 OFFCURVE",
"73.2 419 OFFCURVE",
"78 419 CURVE SMOOTH",
"502 419 LINE SMOOTH",
"506.8 419 OFFCURVE",
"510 415.8 OFFCURVE",
"510 411 CURVE SMOOTH",
"510 309 LINE SMOOTH",
"510 304.2 OFFCURVE",
"506.8 301 OFFCURVE",
"502 301 CURVE SMOOTH",
"190 301 LINE",
"190 118 LINE",
"502 118 LINE SMOOTH",
"506.8 118 OFFCURVE",
"510 114.8 OFFCURVE",
"510 110 CURVE SMOOTH",
"510 8 LINE SMOOTH",
"510 3.2 OFFCURVE",
"506.8 0 OFFCURVE",
"502 0 CURVE SMOOTH"
);
}
);
width = 570;
}
);
leftKerningGroup = O;
unicode = 0045;
},
{
glyphname = F;
lastChange = "2021-05-26 11:06:31 +0000";
layers = (
{
hints = (
{
horizontal = 1;
origin = "{1, 7}";
target = "{0, 0}";
type = Stem;
},
{
origin = "{1, 3}";
target = "{0, 12}";
type = Stem;
}
);
layerId = "6F88C01E-B907-4531-B067-43292AD644AF";
paths = (
{
closed = 1;
nodes = (
"78 602 LINE SMOOTH",
"73.2 602 OFFCURVE",
"70 605.2 OFFCURVE",
"70 610 CURVE SMOOTH",
"70 659.549 LINE SMOOTH",
"70 695.819 OFFCURVE",
"94.181 720 OFFCURVE",
"130.451 720 CURVE SMOOTH",
"502 720 LINE SMOOTH",
"506.8 720 OFFCURVE",
"510 716.8 OFFCURVE",
"510 712 CURVE SMOOTH",
"510 610 LINE SMOOTH",
"510 605.2 OFFCURVE",
"506.8 602 OFFCURVE",
"502 602 CURVE SMOOTH"
);
},
{
closed = 1;
nodes = (
"78 0 LINE SMOOTH",
"73.2 0 OFFCURVE",
"70 3.2 OFFCURVE",
"70 8 CURVE SMOOTH",
"70 411 LINE SMOOTH",
"70 415.8 OFFCURVE",
"73.2 419 OFFCURVE",
"78 419 CURVE SMOOTH",
"382 419 LINE SMOOTH",
"386.8 419 OFFCURVE",
"390 415.8 OFFCURVE",
"390 411 CURVE SMOOTH",
"390 309 LINE SMOOTH",
"390 304.2 OFFCURVE",
"386.8 301 OFFCURVE",
"382 301 CURVE SMOOTH",
"190 301 LINE",
"190 8 LINE SMOOTH",
"190 3.2 OFFCURVE",
"186.8 0 OFFCURVE",
"182 0 CURVE SMOOTH"
);
}
);
width = 570;
}
);
leftKerningGroup = O;
rightKerningGroup = F;
unicode = 0046;
},
{
glyphname = G;
lastChange = "2021-05-26 10:19:29 +0000";
layers = (
{
hints = (
{
horizontal = 1;
origin = "{0, 5}";
target = "{0, 30}";
type = Stem;
},
{
origin = "{0, 0}";
target = "{0, 1}";
type = Stem;
}
);
layerId = "6F88C01E-B907-4531-B067-43292AD644AF";
paths = (
{
closed = 1;
nodes = (
"190 118 LINE",
"430 118 LINE",
"430 391 LINE SMOOTH",
"430 395.8 OFFCURVE",
"433.2 399 OFFCURVE",
"438 399 CURVE SMOOTH",
"489.549 399 LINE SMOOTH",
"525.82 399 OFFCURVE",
"550 374.82 OFFCURVE",
"550 338.549 CURVE SMOOTH",
"550 60.451 LINE SMOOTH",
"550 24.18 OFFCURVE",
"525.82 0 OFFCURVE",
"489.549 0 CURVE SMOOTH",
"130.451 0 LINE SMOOTH",
"94.18 0 OFFCURVE",
"70 24.181 OFFCURVE",
"70 60.452 CURVE",
"70 659.549 LINE",
"70 695.819 OFFCURVE",
"94.181 720 OFFCURVE",
"130.451 720 CURVE SMOOTH",
"490.549 720 LINE SMOOTH",
"526.819 720 OFFCURVE",
"551 695.819 OFFCURVE",
"551 659.549 CURVE SMOOTH",
"551 610 LINE SMOOTH",
"551 605.2 OFFCURVE",
"547.803 602 OFFCURVE",
"543.007 602 CURVE SMOOTH",
"189.152 602 LINE"
);
}
);
width = 620;
},
{
associatedMasterId = "6F88C01E-B907-4531-B067-43292AD644AF";
layerId = "34B0E135-FD22-47A3-80C8-8CAF8785DAA1";
name = "Alt. 1";
paths = (
{
closed = 1;
nodes = (
"70 659.549 LINE SMOOTH",
"70 695.82 OFFCURVE",
"94.18 720 OFFCURVE",
"130.451 720 CURVE SMOOTH",
"489.549 720 LINE SMOOTH",
"525.82 720 OFFCURVE",
"550 695.82 OFFCURVE",
"550 659.549 CURVE SMOOTH",
"550 600 LINE",
"70 600 LINE",
"70 600 LINE"
);
},
{
closed = 1;
nodes = (
"489.549 400 LINE SMOOTH",
"525.82 400 OFFCURVE",
"550 375.819 OFFCURVE",
"550 339.548 CURVE SMOOTH",
"550 60.452 LINE SMOOTH",
"550 24.181 OFFCURVE",
"525.82 0 OFFCURVE",
"489.549 0 CURVE SMOOTH",
"130.451 0 LINE SMOOTH",
"94.18 0 OFFCURVE",
"70 24.18 OFFCURVE",
"70 60.451 CURVE SMOOTH",
"70 480 LINE",
"190 480 LINE",
"190 120 LINE",
"430 120 LINE",
"430 400 LINE"
);
}
);
width = 620;
}
);
leftKerningGroup = O;
rightKerningGroup = O;
unicode = 0047;
},
{
glyphname = H;
lastChange = "2021-05-28 11:14:47 +0000";
layers = (
{
hints = (
{
horizontal = 1;
origin = "{0, 8}";
target = "{0, 25}";
type = Stem;
},
{
origin = "{0, 16}";
target = "{0, 4}";
type = Stem;
}
);
layerId = "6F88C01E-B907-4531-B067-43292AD644AF";
paths = (
{
closed = 1;
nodes = (
"532 720 LINE SMOOTH",
"536.8 720 OFFCURVE",
"540 716.8 OFFCURVE",
"540 712 CURVE SMOOTH",
"540 8 LINE SMOOTH",
"540 3.2 OFFCURVE",
"536.8 0 OFFCURVE",
"532 0 CURVE SMOOTH",
"428 0 LINE SMOOTH",
"423.2 0 OFFCURVE",
"420 3.2 OFFCURVE",
"420 8 CURVE SMOOTH",
"420 301 LINE",
"68 301 LINE SMOOTH",
"63.2 301 OFFCURVE",
"60 304.2 OFFCURVE",
"60 309 CURVE SMOOTH",
"60 411 LINE SMOOTH",
"60 415.8 OFFCURVE",
"63.2 419 OFFCURVE",
"68 419 CURVE SMOOTH",
"420 419 LINE",
"420 712 LINE SMOOTH",
"420 716.8 OFFCURVE",
"423.2 720 OFFCURVE",
"428 720 CURVE SMOOTH"
);
}
);
width = 610;
}
);
rightKerningGroup = O;
unicode = 0048;
},
{
glyphname = I;
lastChange = "2021-05-26 10:19:13 +0000";
layers = (
{
hints = (
{
horizontal = 1;
origin = "{0, 8}";
target = "{0, 15}";
type = Stem;
},
{
origin = "{0, 11}";
target = "{0, 4}";
type = Stem;
}
);
layerId = "6F88C01E-B907-4531-B067-43292AD644AF";
paths = (
{
closed = 1;
nodes = (
"182 720 LINE SMOOTH",
"186.8 720 OFFCURVE",
"190 716.8 OFFCURVE",
"190 712 CURVE SMOOTH",
"190 8 LINE SMOOTH",
"190 3.2 OFFCURVE",
"186.8 0 OFFCURVE",
"182 0 CURVE SMOOTH",
"78 0 LINE SMOOTH",
"73.2 0 OFFCURVE",
"70 3.2 OFFCURVE",
"70 8 CURVE SMOOTH",
"70 712 LINE SMOOTH",
"70 716.8 OFFCURVE",
"73.2 720 OFFCURVE",
"78 720 CURVE SMOOTH"
);
}
);
width = 260;
}
);
leftKerningGroup = O;
rightKerningGroup = O;
unicode = 0049;
},
{
glyphname = J;
lastChange = "2021-05-28 10:37:13 +0000";
layers = (
{
associatedMasterId = "6F88C01E-B907-4531-B067-43292AD644AF";
layerId = "6828F411-B0AF-4C4C-9500-E7465E584C44";
name = "mit Schwung";
paths = (
{
closed = 1;
nodes = (
"120.452 0 LINE SMOOTH",
"84.181 0 OFFCURVE",
"60 24.18 OFFCURVE",
"60 60.451 CURVE SMOOTH",
"60 120 LINE",
"340 120 LINE",
"340 720 LINE",
"460 720 LINE",
"460 60.451 LINE SMOOTH",
"460 24.18 OFFCURVE",
"435.819 0 OFFCURVE",
"399.548 0 CURVE SMOOTH"
);
},
{
closed = 1;
nodes = (
"60 240 LINE",
"180 240 LINE",
"180 120 LINE",
"60 120 LINE"
);
}
);
width = 520;
},
{
hints = (
{
horizontal = 1;
origin = "{0, 0}";
target = "{0, 12}";
type = Stem;
},
{
origin = "{0, 3}";
target = "{0, 17}";
type = Stem;
}
);
layerId = "6F88C01E-B907-4531-B067-43292AD644AF";
paths = (
{
closed = 1;
nodes = (
"120 0 LINE SMOOTH",
"84 0 OFFCURVE",
"60 24 OFFCURVE",
"60 60 CURVE SMOOTH",
"60 110 LINE SMOOTH",
"60 114.8 OFFCURVE",
"63.2 118 OFFCURVE",
"68 118 CURVE SMOOTH",
"340 118 LINE",
"340 712 LINE SMOOTH",
"340 716.8 OFFCURVE",
"343.2 720 OFFCURVE",
"348 720 CURVE SMOOTH",
"452 720 LINE SMOOTH",
"456.8 720 OFFCURVE",
"460 716.8 OFFCURVE",
"460 712 CURVE SMOOTH",
"460 60.451 LINE SMOOTH",
"460 24.18 OFFCURVE",
"435.819 0 OFFCURVE",
"399.549 0 CURVE SMOOTH"
);
}
);
width = 530;
}
);
rightKerningGroup = O;
unicode = 004A;
},
{
glyphname = K;
lastChange = "2021-05-26 10:06:28 +0000";
layers = (
{
hints = (
{
horizontal = 1;
origin = "{0, 11}";
target = "{0, 7}";
type = Stem;
},
{
place = "{50, 401}";
type = Stem;
}
);
layerId = "6F88C01E-B907-4531-B067-43292AD644AF";
paths = (
{
closed = 1;
nodes = (
"66.394 310.993 LINE SMOOTH",
"45.158 340.397 OFFCURVE",
"45.158 379.603 OFFCURVE",
"66.394 409.007 CURVE SMOOTH",
"286.316 713.514 LINE SMOOTH",
"289.126 717.406 OFFCURVE",
"294.2 720 OFFCURVE",
"299 720 CURVE SMOOTH",
"451 720 LINE",
"177 360 LINE",
"451 0 LINE",
"299 0 LINE SMOOTH",
"294.2 0 OFFCURVE",
"289.126 2.594 OFFCURVE",
"286.316 6.486 CURVE SMOOTH"
);
}
);
width = 491;
}
);
unicode = 004B;
},
{
glyphname = L;
lastChange = "2021-05-26 10:18:48 +0000";
layers = (
{
hints = (
{
horizontal = 1;
origin = "{0, 20}";
target = "{0, 8}";
type = Stem;
},
{
origin = "{0, 17}";
target = "{0, 8}";
type = Stem;
}
);
layerId = "6F88C01E-B907-4531-B067-43292AD644AF";
paths = (
{
closed = 1;
nodes = (
"462 0 LINE SMOOTH",
"466.8 0 OFFCURVE",
"470 3.2 OFFCURVE",
"470 8 CURVE SMOOTH",
"470 110 LINE SMOOTH",
"470 114.8 OFFCURVE",
"466.8 118 OFFCURVE",
"462 118 CURVE SMOOTH",
"190 118 LINE",
"190 712 LINE SMOOTH",
"190 716.8 OFFCURVE",
"186.8 720 OFFCURVE",
"182 720 CURVE SMOOTH",
"78 720 LINE SMOOTH",
"73.2 720 OFFCURVE",
"70 716.8 OFFCURVE",
"70 712 CURVE SMOOTH",
"70 60.451 LINE SMOOTH",
"70 24.18 OFFCURVE",
"94.181 0 OFFCURVE",
"130.452 0 CURVE SMOOTH"
);
}
);
width = 530;
}
);
leftKerningGroup = O;
unicode = 004C;
},
{
glyphname = M;
lastChange = "2021-05-27 10:19:06 +0000";
layers = (
{
associatedMasterId = "6F88C01E-B907-4531-B067-43292AD644AF";
layerId = "582FA680-D066-4659-810E-5197D3B3FDB9";
name = "Alt 1";
paths = (
{
closed = 1;
nodes = (
"70 0 LINE",
"190 0 LINE"
);
},
{
closed = 1;
nodes = (
"70 480 LINE",
"190 480 LINE",
"190 0 LINE",
"70 0 LINE"
);
},
{
closed = 1;
nodes = (
"70 659.549 LINE SMOOTH",
"70 695.819 OFFCURVE",
"94.181 720 OFFCURVE",
"130.451 720 CURVE SMOOTH",
"300 720 LINE",
"420 660 LINE",
"609.549 660 LINE SMOOTH",
"645.819 660 OFFCURVE",
"670 635.82 OFFCURVE",
"670 599.549 CURVE SMOOTH",
"670 0 LINE",
"550 0 LINE",
"550 542 LINE",
"400 542 LINE",
"280 602 LINE",
"70 602 LINE"
);
}
);
width = 740;
},
{
hints = (
{
horizontal = 1;
origin = "{0, 7}";
target = "{0, 17}";
type = Stem;
},
{
origin = "{0, 25}";
target = "{0, 8}";
type = Stem;
}
);
layerId = "6F88C01E-B907-4531-B067-43292AD644AF";
paths = (
{
closed = 1;
nodes = (
"70 712 LINE SMOOTH",
"70 716.8 OFFCURVE",
"73.2 720 OFFCURVE",
"78 720 CURVE SMOOTH",
"609.549 720 LINE SMOOTH",
"645.819 720 OFFCURVE",
"670 695.82 OFFCURVE",
"670 659.549 CURVE SMOOTH",
"670 8 LINE SMOOTH",
"670 3.2 OFFCURVE",
"666.8 0 OFFCURVE",
"662 0 CURVE SMOOTH",
"558 0 LINE SMOOTH",
"553.2 0 OFFCURVE",
"550 3.2 OFFCURVE",
"550 8 CURVE SMOOTH",
"550 602 LINE",
"190 602 LINE",
"190 8 LINE SMOOTH",
"190 3.2 OFFCURVE",
"186.8 0 OFFCURVE",
"182 0 CURVE SMOOTH",
"78 0 LINE SMOOTH",
"73.2 0 OFFCURVE",
"70 3.2 OFFCURVE",
"70 8 CURVE SMOOTH"
);
}
);
width = 740;
}
);
leftKerningGroup = O;
rightKerningGroup = O;
unicode = 004D;
},
{
glyphname = N;
lastChange = "2021-05-28 11:55:25 +0000";
layers = (
{
hints = (
{
horizontal = 1;
origin = "{0, 7}";
target = "{0, 17}";
type = Stem;
},
{
origin = "{0, 18}";
target = "{0, 15}";
type = Stem;
}
);
layerId = "6F88C01E-B907-4531-B067-43292AD644AF";
paths = (
{
closed = 1;
nodes = (
"70 712 LINE SMOOTH",
"70 716.8 OFFCURVE",
"73.2 720 OFFCURVE",
"78 720 CURVE SMOOTH",
"489.549 720 LINE SMOOTH",
"525.82 720 OFFCURVE",
"550 695.82 OFFCURVE",
"550 659.549 CURVE SMOOTH",
"550 8 LINE SMOOTH",
"550 3.2 OFFCURVE",
"546.8 0 OFFCURVE",
"542 0 CURVE SMOOTH",
"438 0 LINE SMOOTH",
"433.2 0 OFFCURVE",
"430 3.2 OFFCURVE",
"430 8 CURVE SMOOTH",
"430 602 LINE",
"190 602 LINE",
"190 8 LINE SMOOTH",
"190 3.2 OFFCURVE",
"186.8 0 OFFCURVE",
"182 0 CURVE SMOOTH",
"80 0 LINE SMOOTH",
"74 0 OFFCURVE",
"70 4 OFFCURVE",
"70 10 CURVE SMOOTH"
);
}
);
width = 620;
}
);
leftKerningGroup = O;
rightKerningGroup = O;
unicode = 004E;
},
{
glyphname = O;
lastChange = "2021-05-28 11:47:41 +0000";
layers = (
{
associatedMasterId = "6F88C01E-B907-4531-B067-43292AD644AF";
hints = (
{
horizontal = 1;
origin = "{0, 3}";
target = "{1, 0}";
type = Stem;
},
{
horizontal = 1;
origin = "{1, 1}";
target = "{0, 12}";
type = Stem;
},
{
origin = "{0, 0}";
target = "{1, 0}";
type = Stem;
},
{
origin = "{1, 3}";
target = "{0, 7}";
type = Stem;
}
);
layerId = "7141ABA4-82D9-480C-98C4-A56411EBA0FA";
name = "26. Mai 21, 12:47";
paths = (
{
closed = 1;
nodes = (
"70 60.451 LINE SMOOTH",
"70 24.18 OFFCURVE",
"94.18 0 OFFCURVE",
"130.451 0 CURVE SMOOTH",
"489.549 0 LINE SMOOTH",
"525.82 0 OFFCURVE",
"550 24.18 OFFCURVE",
"550 60.451 CURVE SMOOTH",
"550 659.549 LINE SMOOTH",
"550 695.82 OFFCURVE",
"525.82 720 OFFCURVE",
"489.549 720 CURVE SMOOTH",
"130.451 720 LINE SMOOTH",
"94.18 720 OFFCURVE",
"70 695.82 OFFCURVE",
"70 659.549 CURVE SMOOTH"
);
},
{
closed = 1;
nodes = (
"187 115 LINE",
"187 605 LINE",
"433 605 LINE",
"433 115 LINE"
);
}
);
width = 620;
},
{
associatedMasterId = "6F88C01E-B907-4531-B067-43292AD644AF";
hints = (
{
horizontal = 1;
origin = "{0, 3}";
target = "{1, 0}";
type = Stem;
},
{
horizontal = 1;
origin = "{1, 1}";
target = "{0, 12}";
type = Stem;
},
{
origin = "{0, 0}";
target = "{1, 0}";
type = Stem;
},
{
origin = "{1, 3}";
target = "{0, 7}";
type = Stem;
}
);
layerId = "0F036E3D-E9BE-485E-BB2B-E8B6F7BCEEE3";
name = "26. Mai 21, 12:57";
paths = (
{
closed = 1;
nodes = (
"70 60.451 LINE SMOOTH",
"70 24.18 OFFCURVE",
"94.18 0 OFFCURVE",
"130.451 0 CURVE SMOOTH",
"489.549 0 LINE SMOOTH",
"525.82 0 OFFCURVE",
"550 24.18 OFFCURVE",
"550 60.451 CURVE SMOOTH",
"550 659.549 LINE SMOOTH",
"550 695.82 OFFCURVE",
"525.82 720 OFFCURVE",
"489.549 720 CURVE SMOOTH",
"130.451 720 LINE SMOOTH",
"94.18 720 OFFCURVE",
"70 695.82 OFFCURVE",
"70 659.549 CURVE SMOOTH"
);
},
{
closed = 1;
nodes = (
"190 118 LINE",
"190 602 LINE",
"430 602 LINE",
"430 118 LINE"
);
}
);
width = 620;
},
{
hints = (
{
horizontal = 1;
origin = "{0, 3}";
target = "{1, 0}";
type = Stem;
},
{
horizontal = 1;
origin = "{1, 1}";
target = "{0, 12}";
type = Stem;
},
{
origin = "{0, 0}";
target = "{1, 0}";
type = Stem;
},
{
origin = "{1, 3}";
target = "{0, 7}";
type = Stem;
}
);
layerId = "6F88C01E-B907-4531-B067-43292AD644AF";
name = Regular;
paths = (
{
closed = 1;
nodes = (
"70 60.451 LINE SMOOTH",
"70 24.18 OFFCURVE",
"94.18 0 OFFCURVE",
"130.451 0 CURVE SMOOTH",
"479.549 0 LINE SMOOTH",
"515.82 0 OFFCURVE",
"540 24.18 OFFCURVE",
"540 60.451 CURVE SMOOTH",
"540 659.549 LINE SMOOTH",
"540 695.82 OFFCURVE",
"515.82 720 OFFCURVE",
"479.549 720 CURVE SMOOTH",
"130.451 720 LINE SMOOTH",
"94.18 720 OFFCURVE",
"70 695.82 OFFCURVE",
"70 659.549 CURVE SMOOTH"
);
},
{
closed = 1;
nodes = (
"182 110 LINE",
"182 610 LINE",
"428 610 LINE",
"428 110 LINE"
);
}
);
width = 620;
}
);
leftKerningGroup = O;
rightKerningGroup = O;
unicode = 004F;
},
{
glyphname = P;
lastChange = "2021-05-26 10:18:48 +0000";
layers = (
{
hints = (
{
horizontal = 1;
origin = "{0, 22}";
target = "{0, 18}";
type = Stem;
},
{
horizontal = 1;
origin = "{0, 15}";
target = "{0, 8}";
type = Stem;
},
{
origin = "{1, 10}";
target = "{1, 3}";
type = Stem;
},
{
origin = "{0, 17}";
target = "{0, 3}";
type = Stem;
}
);
layerId = "6F88C01E-B907-4531-B067-43292AD644AF";
paths = (
{
closed = 1;
nodes = (
"439.999 281 LINE SMOOTH",
"476 281 OFFCURVE",
"500 305 OFFCURVE",
"500 341 CURVE SMOOTH",
"500 660 LINE SMOOTH",
"500 696 OFFCURVE",
"476 720 OFFCURVE",
"439.999 720 CURVE SMOOTH",
"78.001 720 LINE SMOOTH",
"73.2 720 OFFCURVE",
"70 716.8 OFFCURVE",
"70 712 CURVE SMOOTH",
"70 610 LINE SMOOTH",
"70 605.2 OFFCURVE",
"73.2 602 OFFCURVE",
"78 602 CURVE SMOOTH",
"380 602 LINE",
"380 399 LINE",
"78 399 LINE SMOOTH",
"73.2 399 OFFCURVE",
"70 395.8 OFFCURVE",
"70 391 CURVE SMOOTH",
"70 281 LINE"
);
},
{
closed = 1;
nodes = (
"192.002 0 LINE SMOOTH",
"196.801 0 OFFCURVE",
"200 3.2 OFFCURVE",
"200 8 CURVE SMOOTH",
"200 54.602 OFFCURVE",
"200 289 OFFCURVE",
"200 289 CURVE",
"200 289 OFFCURVE",
"119.92 289 OFFCURVE",
"70 289 CURVE",
"70 8 LINE SMOOTH",
"70 3.2 OFFCURVE",
"73.199 0 OFFCURVE",
"77.998 0 CURVE SMOOTH"
);
}
);
width = 570;
}
);
leftKerningGroup = O;
rightKerningGroup = P;
unicode = 0050;
},
{
glyphname = Q;
lastChange = "2021-05-26 10:18:48 +0000";
layers = (
{
hints = (
{
horizontal = 1;
origin = "{0, 22}";
target = "{0, 16}";
type = Stem;
},
{
origin = "{0, 22}";
target = "{0, 19}";
type = Stem;
}
);
layerId = "6F88C01E-B907-4531-B067-43292AD644AF";
paths = (
{
closed = 1;
nodes = (
"130.451 0 LINE SMOOTH",
"94.18 0 OFFCURVE",
"70 24.18 OFFCURVE",
"70 60.451 CURVE SMOOTH",
"70 659.549 LINE SMOOTH",
"70 695.82 OFFCURVE",
"94.18 720 OFFCURVE",
"130.451 720 CURVE SMOOTH",
"479.549 720 LINE SMOOTH",
"515.82 720 OFFCURVE",
"540 695.819 OFFCURVE",
"540 659.548 CURVE SMOOTH",
"540 246 LINE SMOOTH",
"540 241.2 OFFCURVE",
"536.8 238 OFFCURVE",
"532 238 CURVE SMOOTH",
"428 238 LINE SMOOTH",
"423.2 238 OFFCURVE",
"420 241.2 OFFCURVE",
"420 246 CURVE SMOOTH",
"420 602 LINE",
"190 602 LINE",
"190 118 LINE",
"572 118 LINE SMOOTH",
"576.8 118 OFFCURVE",
"580 114.8 OFFCURVE",
"580 110 CURVE SMOOTH",
"580 8 LINE SMOOTH",
"580 3.2 OFFCURVE",
"576.8 0 OFFCURVE",
"572 0 CURVE SMOOTH"
);
}
);
width = 640;
}
);
leftKerningGroup = O;
unicode = 0051;
},
{
glyphname = R;
lastChange = "2021-05-26 10:06:41 +0000";
layers = (
{
associatedMasterId = "6F88C01E-B907-4531-B067-43292AD644AF";
layerId = "34DCCC4C-BD29-4850-AF08-D08D68D0426F";
name = tiefer;
paths = (
{
closed = 1;
nodes = (
"156.333 7.542 LINE SMOOTH",
"157.933 3.017 OFFCURVE",
"162.199 0 OFFCURVE",
"166.998 0 CURVE SMOOTH",
"289 0 LINE",
"184 280 LINE",
"410 280 LINE SMOOTH",
"446 280 OFFCURVE",
"470 304 OFFCURVE",
"470 340 CURVE SMOOTH",
"470 660 LINE SMOOTH",
"470 696 OFFCURVE",
"446 720 OFFCURVE",
"409.999 720 CURVE SMOOTH",
"68.001 720 LINE SMOOTH",
"63.2 720 OFFCURVE",
"60 716.8 OFFCURVE",
"60 712 CURVE SMOOTH",
"60 608 LINE SMOOTH",
"60 603.2 OFFCURVE",
"63.2 600 OFFCURVE",
"68 600 CURVE SMOOTH",
"350 600 LINE",
"350 400 LINE",
"68 400 LINE SMOOTH",
"63.2 400 OFFCURVE",
"60 396.8 OFFCURVE",
"60 392 CURVE SMOOTH",
"60 280 LINE"
);
}
);
width = 540;
},
{
associatedMasterId = "6F88C01E-B907-4531-B067-43292AD644AF";
layerId = "D6F808F1-3409-4C74-BDC4-9681877DB33E";
name = "anderer Fuß";
paths = (
{
closed = 1;
nodes = (
"60 412 LINE SMOOTH",
"60 416.8 OFFCURVE",
"63.2 420 OFFCURVE",
"68.001 420 CURVE SMOOTH",
"360 420 LINE",
"360 600 LINE",
"68.001 600 LINE SMOOTH",
"63.2 600 OFFCURVE",
"60 603.2 OFFCURVE",
"60 608 CURVE SMOOTH",
"60 659.549 LINE SMOOTH",
"60 695.82 OFFCURVE",
"84.181 720 OFFCURVE",
"120.451 720 CURVE SMOOTH",
"419.549 720 LINE SMOOTH",
"455.819 720 OFFCURVE",
"480 695.819 OFFCURVE",
"480 659.549 CURVE SMOOTH",
"480 360.451 LINE SMOOTH",
"480 324.181 OFFCURVE",
"455.819 300 OFFCURVE",
"419.549 300 CURVE SMOOTH",
"200 300 LINE",
"437 0 LINE",
"285 0 LINE SMOOTH",
"280.2 0 OFFCURVE",
"275.114 2.607 OFFCURVE",
"272.285 6.519 CURVE SMOOTH",
"60 300 LINE"
);
}
);
width = 550;
},
{
hints = (
{
horizontal = 1;
origin = "{0, 28}";
target = "{0, 24}";
type = Stem;
},
{
horizontal = 1;
origin = "{0, 21}";
target = "{0, 14}";
type = Stem;
},
{
origin = "{0, 23}";
target = "{0, 9}";
type = Stem;
}
);
layerId = "6F88C01E-B907-4531-B067-43292AD644AF";
paths = (
{
closed = 1;
nodes = (
"164.32 7.538 LINE SMOOTH",
"165.928 3.015 OFFCURVE",
"170.199 0 OFFCURVE",
"174.998 0 CURVE SMOOTH",
"297 0 LINE",
"190 301 LINE",
"430 301 LINE SMOOTH",
"466 301 OFFCURVE",
"490 325 OFFCURVE",
"490 361.001 CURVE SMOOTH",
"490 659.999 LINE SMOOTH",
"490 696 OFFCURVE",
"466 720 OFFCURVE",
"429.999 720 CURVE SMOOTH",
"68.001 720 LINE SMOOTH",
"63.2 720 OFFCURVE",
"60 716.8 OFFCURVE",
"60 712 CURVE SMOOTH",
"60 610 LINE SMOOTH",
"60 605.2 OFFCURVE",
"63.2 602 OFFCURVE",
"68 602 CURVE SMOOTH",
"370 602 LINE",
"370 419 LINE",
"68 419 LINE SMOOTH",
"63.2 419 OFFCURVE",
"60 415.8 OFFCURVE",
"60 411 CURVE SMOOTH",
"60 301 LINE"
);
}
);
width = 560;
}
);
rightKerningGroup = R;
unicode = 0052;
},
{
glyphname = S;
lastChange = "2021-05-26 11:19:53 +0000";
layers = (
{
associatedMasterId = "6F88C01E-B907-4531-B067-43292AD644AF";
layerId = "AF0FCAC1-10C0-421F-BD3C-A8DF46E51C4F";
name = eckiger;
paths = (
{
closed = 1;
nodes = (
"419.549 400 LINE SMOOTH",
"455.82 400 OFFCURVE",
"480 375.819 OFFCURVE",
"480 339.548 CURVE SMOOTH",
"480 59.987 LINE SMOOTH",
"480 23.995 OFFCURVE",
"456.005 0 OFFCURVE",
"420.012 0 CURVE SMOOTH",
"68 0 LINE SMOOTH",
"63.2 0 OFFCURVE",
"60 3.2 OFFCURVE",
"60 8 CURVE SMOOTH",
"60 112 LINE SMOOTH",
"60 116.8 OFFCURVE",
"63.2 120 OFFCURVE",
"68.001 120 CURVE SMOOTH",
"360 120 LINE",
"360 392 LINE SMOOTH",
"360 396.8 OFFCURVE",
"363.2 400 OFFCURVE",
"368 400 CURVE SMOOTH"
);
},
{
closed = 1;
nodes = (
"130.451 320 LINE SMOOTH",
"94.18 320 OFFCURVE",
"70 344.181 OFFCURVE",
"70 380.452 CURVE SMOOTH",
"70 660.013 LINE SMOOTH",
"70 696.005 OFFCURVE",
"93.995 720 OFFCURVE",
"129.988 720 CURVE SMOOTH",
"471.999 720 LINE SMOOTH",
"476.8 720 OFFCURVE",
"480 716.8 OFFCURVE",
"480 712 CURVE SMOOTH",
"480 608 LINE SMOOTH",
"480 603.2 OFFCURVE",
"476.8 600 OFFCURVE",
"472 600 CURVE SMOOTH",
"190 600 LINE",
"190 328 LINE SMOOTH",
"190 323.2 OFFCURVE",
"186.8 320 OFFCURVE",
"182 320 CURVE SMOOTH"
);
}
);
width = 550;
},
{
hints = (
{
horizontal = 1;
origin = "{0, 15}";
target = "{1, 0}";
type = Stem;
},
{
horizontal = 1;
origin = "{0, 20}";
target = "{1, 16}";
type = Stem;
},
{
origin = "{1, 17}";
target = "{0, 16}";
type = Stem;
}
);
layerId = "6F88C01E-B907-4531-B067-43292AD644AF";
paths = (
{
closed = 1;
nodes = (
"419.549 399 LINE SMOOTH",
"455.82 399 OFFCURVE",
"480 374.82 OFFCURVE",
"480 338.549 CURVE SMOOTH",
"480 59.988 LINE SMOOTH",
"480 23.995 OFFCURVE",
"456.005 0 OFFCURVE",
"420.012 0 CURVE SMOOTH",
"120 0 LINE SMOOTH",
"84 0 OFFCURVE",
"60 24 OFFCURVE",
"60 60 CURVE SMOOTH",
"60 110 LINE SMOOTH",
"60 114.8 OFFCURVE",
"63.2 118 OFFCURVE",
"68.001 118 CURVE SMOOTH",
"360 118 LINE",
"360 391 LINE SMOOTH",
"360 395.8 OFFCURVE",
"363.2 399 OFFCURVE",
"368 399 CURVE SMOOTH"
);
},
{
closed = 1;
nodes = (
"130.451 320 LINE SMOOTH",
"94.18 320 OFFCURVE",
"70 344.181 OFFCURVE",
"70 380.452 CURVE SMOOTH",
"70 660.013 LINE SMOOTH",
"70 696.005 OFFCURVE",
"93.995 720 OFFCURVE",
"129.988 720 CURVE SMOOTH",
"419.999 720 LINE SMOOTH",
"456 720 OFFCURVE",
"480 696 OFFCURVE",
"480 660 CURVE SMOOTH",
"480 610 LINE SMOOTH",
"480 605.2 OFFCURVE",
"476.8 602 OFFCURVE",
"472 602 CURVE SMOOTH",
"190 602 LINE",
"190 328 LINE SMOOTH",
"190 323.2 OFFCURVE",
"186.8 320 OFFCURVE",
"182 320 CURVE SMOOTH"
);
}
);
width = 550;
}
);
leftKerningGroup = O;
rightKerningGroup = O;
unicode = 0053;
},
{
glyphname = T;
lastChange = "2021-05-28 11:44:20 +0000";
layers = (
{
associatedMasterId = "6F88C01E-B907-4531-B067-43292AD644AF";
hints = (
{
horizontal = 1;
origin = "{0, 3}";
target = "{0, 12}";
type = Stem;
},
{
origin = "{0, 0}";
target = "{1, 11}";
type = Stem;
},
{
origin = "{1, 4}";
target = "{0, 7}";
type = Stem;
}
);
layerId = "70B58B4E-DEE9-4CC0-BD13-D6968423E86A";
name = "26. Mai 21, 12:58";
paths = (
{
closed = 1;
nodes = (
"60 610 LINE SMOOTH",
"60 605.2 OFFCURVE",
"63.2 602 OFFCURVE",
"68 602 CURVE SMOOTH",
"490.997 602 LINE SMOOTH",
"496.399 602 OFFCURVE",
"500 605.6 OFFCURVE",
"500 611.001 CURVE SMOOTH",
"500 712 LINE SMOOTH",
"500 716.8 OFFCURVE",
"496.8 720 OFFCURVE",
"492 720 CURVE SMOOTH",
"69.003 720 LINE SMOOTH",
"63.601 720 OFFCURVE",
"60 716.4 OFFCURVE",
"60 710.999 CURVE SMOOTH"
);
},
{
closed = 1;
nodes = (
"332 480 LINE SMOOTH",
"336.8 480 OFFCURVE",
"340 476.8 OFFCURVE",
"340 472 CURVE SMOOTH",
"340 9 LINE SMOOTH",
"340 3.6 OFFCURVE",
"336.4 0 OFFCURVE",
"331 0 CURVE SMOOTH",
"228 0 LINE SMOOTH",
"223.2 0 OFFCURVE",
"220 3.2 OFFCURVE",
"220 8 CURVE SMOOTH",
"220 472 LINE SMOOTH",
"220 476.8 OFFCURVE",
"223.2 480 OFFCURVE",
"228 480 CURVE SMOOTH"
);
}
);
width = 560;
},
{
hints = (
{
horizontal = 1;
origin = "{0, 3}";
target = "{0, 12}";
type = Stem;
},
{
origin = "{0, 0}";
target = "{1, 11}";
type = Stem;
},
{
origin = "{1, 4}";
target = "{0, 7}";
type = Stem;
}
);
layerId = "6F88C01E-B907-4531-B067-43292AD644AF";
name = Regular;
paths = (
{
closed = 1;
nodes = (
"60 605 LINE SMOOTH",
"60 600.2 OFFCURVE",
"63.2 597 OFFCURVE",
"68 597 CURVE SMOOTH",
"490.997 597 LINE SMOOTH",
"496.399 597 OFFCURVE",
"500 600.6 OFFCURVE",
"500 606.001 CURVE SMOOTH",
"500 712 LINE SMOOTH",
"500 716.8 OFFCURVE",
"496.8 720 OFFCURVE",
"492 720 CURVE SMOOTH",
"69.003 720 LINE SMOOTH",
"63.601 720 OFFCURVE",
"60 716.4 OFFCURVE",
"60 710.999 CURVE SMOOTH"
);
},
{
closed = 1;
nodes = (
"332 475 LINE SMOOTH",
"336.8 475 OFFCURVE",
"340 471.8 OFFCURVE",
"340 467 CURVE SMOOTH",
"340 9 LINE SMOOTH",
"340 3.6 OFFCURVE",
"336.4 0 OFFCURVE",
"331 0 CURVE SMOOTH",
"228 0 LINE SMOOTH",
"223.2 0 OFFCURVE",
"220 3.2 OFFCURVE",
"220 8 CURVE SMOOTH",
"220 467 LINE SMOOTH",
"220 471.8 OFFCURVE",
"223.2 475 OFFCURVE",
"228 475 CURVE SMOOTH"
);
}
);
width = 560;
}
);
unicode = 0054;
},
{
glyphname = U;
lastChange = "2021-05-26 10:19:13 +0000";
layers = (
{
associatedMasterId = "6F88C01E-B907-4531-B067-43292AD644AF";
layerId = "01A95C3F-A2F7-4551-B642-06F75420185B";
name = runder;
paths = (
{
closed = 1;
nodes = (
"81 720 LINE SMOOTH",
"74.4 720 OFFCURVE",
"70 715.601 OFFCURVE",
"70 709.003 CURVE SMOOTH",
"70 60.451 LINE SMOOTH",
"70 24.18 OFFCURVE",
"94.18 0 OFFCURVE",
"130.451 0 CURVE SMOOTH",
"489.549 0 LINE SMOOTH",
"525.82 0 OFFCURVE",
"550 24.18 OFFCURVE",
"550 60.451 CURVE SMOOTH",
"550 709.003 LINE SMOOTH",
"550 715.601 OFFCURVE",
"545.6 720 OFFCURVE",
"539 720 CURVE SMOOTH",
"490 720 LINE SMOOTH",
"454 720 OFFCURVE",
"430 696 OFFCURVE",
"430 660 CURVE SMOOTH",
"430 120 LINE",
"190 120 LINE",
"190 660 LINE SMOOTH",
"190 696 OFFCURVE",
"166 720 OFFCURVE",
"130 720 CURVE SMOOTH"
);
}
);
width = 620;
},
{
hints = (
{
horizontal = 1;
origin = "{0, 7}";
target = "{0, 21}";
type = Stem;
},
{
origin = "{0, 4}";
target = "{0, 21}";
type = Stem;
},
{
origin = "{0, 20}";
target = "{0, 11}";
type = Stem;
}
);
layerId = "6F88C01E-B907-4531-B067-43292AD644AF";
paths = (
{
closed = 1;
nodes = (
"78 720 LINE SMOOTH",
"73.2 720 OFFCURVE",
"70 716.8 OFFCURVE",
"70 712 CURVE SMOOTH",
"70 60.451 LINE SMOOTH",
"70 24.18 OFFCURVE",
"94.18 0 OFFCURVE",
"130.451 0 CURVE SMOOTH",
"489.549 0 LINE SMOOTH",
"525.82 0 OFFCURVE",
"550 24.18 OFFCURVE",
"550 60.451 CURVE SMOOTH",
"550 712 LINE SMOOTH",
"550 716.8 OFFCURVE",
"546.8 720 OFFCURVE",
"542 720 CURVE SMOOTH",
"438 720 LINE SMOOTH",
"433.2 720 OFFCURVE",
"430 716.8 OFFCURVE",
"430 712 CURVE SMOOTH",
"430 118 LINE",
"190 118 LINE",
"190 712 LINE SMOOTH",
"190 716.8 OFFCURVE",
"186.8 720 OFFCURVE",
"182 720 CURVE SMOOTH"
);
}
);
width = 620;
}
);
leftKerningGroup = O;
rightKerningGroup = O;
unicode = 0055;
},
{
glyphname = V;
lastChange = "2021-05-28 11:52:36 +0000";
layers = (
{
hints = (
{
horizontal = 1;
origin = "{0, 7}";
target = "{0, 21}";
type = Stem;
},
{
origin = "{0, 3}";
target = "{0, 12}";
type = Stem;
}
);
layerId = "6F88C01E-B907-4531-B067-43292AD644AF";
paths = (
{
closed = 1;
nodes = (
"57.82 720 LINE SMOOTH",
"52.42 720 OFFCURVE",
"49.34 716.437 OFFCURVE",
"50.119 711.093 CURVE SMOOTH",
"145.096 59.818 LINE SMOOTH",
"150.331 23.927 OFFCURVE",
"178.001 0 OFFCURVE",
"214.271 0 CURVE SMOOTH",
"384.369 0 LINE SMOOTH",
"420.639 0 OFFCURVE",
"448.277 23.932 OFFCURVE",
"453.462 59.83 CURVE SMOOTH",
"547.533 711.092 LINE SMOOTH",
"548.305 716.437 OFFCURVE",
"545.22 720 OFFCURVE",
"539.82 720 CURVE SMOOTH",
"429.82 720 LINE SMOOTH",
"425.02 720 OFFCURVE",
"421.435 716.823 OFFCURVE",
"420.857 712.058 CURVE SMOOTH",
"348.82 118 LINE",
"248.82 118 LINE",
"176.783 712.058 LINE SMOOTH",
"176.205 716.823 OFFCURVE",
"172.62 720 OFFCURVE",
"167.82 720 CURVE SMOOTH"
);
}
);
width = 597.65;
}
);
leftKerningGroup = V;
rightKerningGroup = V;
unicode = 0056;
},
{
glyphname = W;
lastChange = "2021-05-28 10:26:58 +0000";
layers = (
{
hints = (
{
horizontal = 1;
origin = "{0, 7}";
target = "{0, 21}";
type = Stem;
},
{
origin = "{0, 3}";
target = "{0, 12}";
type = Stem;
}
);
layerId = "6F88C01E-B907-4531-B067-43292AD644AF";
paths = (
{
closed = 1;
nodes = (
"57.82 720 LINE SMOOTH",
"52.42 720 OFFCURVE",
"49.34 716.437 OFFCURVE",
"50.119 711.093 CURVE SMOOTH",
"145.096 59.818 LINE SMOOTH",
"150.331 23.927 OFFCURVE",
"178.001 0 OFFCURVE",
"214.272 0 CURVE SMOOTH",
"524.368 0 LINE SMOOTH",
"560.639 0 OFFCURVE",
"588.277 23.932 OFFCURVE",
"593.462 59.83 CURVE SMOOTH",
"687.533 711.092 LINE SMOOTH",
"688.305 716.437 OFFCURVE",
"685.22 720 OFFCURVE",
"679.82 720 CURVE SMOOTH",
"569.82 720 LINE SMOOTH",
"565.02 720 OFFCURVE",
"561.435 716.823 OFFCURVE",
"560.857 712.058 CURVE SMOOTH",
"488.82 118 LINE",
"248.82 118 LINE",
"176.783 712.058 LINE SMOOTH",
"176.205 716.823 OFFCURVE",
"172.62 720 OFFCURVE",
"167.82 720 CURVE SMOOTH"
);
}
);
width = 737.65;
}
);
leftKerningGroup = V;
rightKerningGroup = V;
unicode = 0057;
},
{
glyphname = X;
lastChange = "2021-05-27 10:23:19 +0000";
layers = (
{
associatedMasterId = "6F88C01E-B907-4531-B067-43292AD644AF";
layerId = "F486D6AA-1DB8-4306-ADDA-D8BC1DCDD195";
name = "alt. 1";
paths = (
{
closed = 1;
nodes = (
"203.639 530.763 LINE SMOOTH",
"187.056 498.505 OFFCURVE",
"164.869 498.466 OFFCURVE",
"148.173 530.666 CURVE SMOOTH",
"50 720 LINE",
"200 720 LINE",
"249 619 LINE"
);
},
{
closed = 1;
nodes = (
"50 0 LINE",
"200 0 LINE",
"590 720 LINE",
"440 720 LINE"
);
},
{
closed = 1;
nodes = (
"444.344 208.246 LINE SMOOTH",
"460.938 240.498 OFFCURVE",
"483.585 240.775 OFFCURVE",
"500.962 208.938 CURVE SMOOTH",
"615 0 LINE",
"465 0 LINE",
"401 124 LINE"
);
}
);
width = 655;
},
{
hints = (
{
horizontal = 1;
origin = "{1, 8}";
target = "{1, 10}";
type = Stem;
},
{
place = "{292, 42}";
type = Stem;
}
);
layerId = "6F88C01E-B907-4531-B067-43292AD644AF";
paths = (
{
closed = 1;
nodes = (
"343.449 313.112 LINE SMOOTH",
"331.18 347.245 OFFCURVE",
"331.017 392.814 OFFCURVE",
"343.044 427.035 CURVE SMOOTH",
"443.348 712.454 LINE SMOOTH",
"444.939 716.982 OFFCURVE",
"449.199 720 OFFCURVE",
"453.998 720 CURVE SMOOTH",
"576 720 LINE",
"449 370 LINE",
"586 0 LINE",
"463.998 0 LINE SMOOTH",
"459.199 0 OFFCURVE",
"454.918 3.011 OFFCURVE",
"453.294 7.528 CURVE SMOOTH"
);
},
{
closed = 1;
nodes = (
"282.956 427.035 LINE SMOOTH",
"294.983 392.814 OFFCURVE",
"294.82 347.245 OFFCURVE",
"282.551 313.112 CURVE SMOOTH",
"172.706 7.528 LINE SMOOTH",
"171.082 3.011 OFFCURVE",
"166.801 0 OFFCURVE",
"162.002 0 CURVE SMOOTH",
"40 0 LINE",
"177 370 LINE",
"50 720 LINE",
"172.002 720 LINE SMOOTH",
"176.801 720 OFFCURVE",
"181.061 716.982 OFFCURVE",
"182.652 712.454 CURVE SMOOTH"
);
}
);
width = 626;
}
);
unicode = 0058;
},
{
glyphname = Y;
lastChange = "2021-05-28 11:21:01 +0000";
layers = (
{
hints = (
{
horizontal = 1;
origin = "{0, 7}";
target = "{0, 26}";
type = Stem;
},
{
origin = "{0, 3}";
target = "{0, 17}";
type = Stem;
}
);
layerId = "6F88C01E-B907-4531-B067-43292AD644AF";
paths = (
{
closed = 1;
nodes = (
"57.89 720 LINE SMOOTH",
"52.49 720 OFFCURVE",
"49.377 716.433 OFFCURVE",
"50.109 711.083 CURVE SMOOTH",
"100.704 340.894 LINE SMOOTH",
"105.616 304.958 OFFCURVE",
"133.071 281 OFFCURVE",
"169.341 281 CURVE SMOOTH",
"358.89 281 LINE",
"325.002 8.931 LINE SMOOTH",
"324.335 3.572 OFFCURVE",
"327.49 0 OFFCURVE",
"332.89 0 CURVE SMOOTH",
"435.89 0 LINE SMOOTH",
"440.69 0 OFFCURVE",
"444.309 3.172 OFFCURVE",
"444.936 7.931 CURVE SMOOTH",
"537.713 711.077 LINE SMOOTH",
"538.419 716.431 OFFCURVE",
"535.29 720 OFFCURVE",
"529.89 720 CURVE SMOOTH",
"419.89 720 LINE SMOOTH",
"415.09 720 OFFCURVE",
"411.494 716.824 OFFCURVE",
"410.901 712.061 CURVE SMOOTH",
"371.89 399 LINE",
"215.89 399 LINE",
"176.879 712.061 LINE SMOOTH",
"176.286 716.824 OFFCURVE",
"172.69 720 OFFCURVE",
"167.89 720 CURVE SMOOTH"
);
}
);
width = 587.81;
}
);
rightKerningGroup = V;
unicode = 0059;
},
{
glyphname = Z;
lastChange = "2021-05-26 10:06:59 +0000";
layers = (
{
hints = (
{
horizontal = 1;
origin = "{0, 3}";
target = "{1, 4}";
type = Stem;
},
{
origin = "{2, 3}";
target = "{2, 9}";
type = Stem;
}
);
layerId = "6F88C01E-B907-4531-B067-43292AD644AF";
paths = (
{
closed = 1;
nodes = (
"320.275 473.545 LINE SMOOTH",
"323.11 477.418 OFFCURVE",
"328.2 480 OFFCURVE",
"333 480 CURVE SMOOTH",
"470 480 LINE",
"206 118 LINE",
"60 118 LINE"
);
},
{
closed = 1;
nodes = (
"500 610 LINE SMOOTH",
"500 605.2 OFFCURVE",
"496.8 602 OFFCURVE",
"492 602 CURVE SMOOTH",
"68 602 LINE SMOOTH",
"63.2 602 OFFCURVE",
"60 605.2 OFFCURVE",
"60 610 CURVE SMOOTH",
"60 712 LINE SMOOTH",
"60 716.8 OFFCURVE",
"63.2 720 OFFCURVE",
"68 720 CURVE SMOOTH",
"439.549 720 LINE SMOOTH",
"475.819 720 OFFCURVE",
"500 695.819 OFFCURVE",
"500 659.549 CURVE SMOOTH"
);
},
{
closed = 1;
nodes = (
"120.451 0 LINE SMOOTH",
"84.181 0 OFFCURVE",
"60 24.181 OFFCURVE",
"60 60.451 CURVE SMOOTH",
"60 118 LINE",
"492 118 LINE SMOOTH",
"496.8 118 OFFCURVE",
"500 114.8 OFFCURVE",
"500 110 CURVE SMOOTH",
"500 8 LINE SMOOTH",
"500 3.2 OFFCURVE",
"496.8 0 OFFCURVE",
"492 0 CURVE SMOOTH"
);
}
);
width = 560;
}
);
unicode = 005A;
},
{
glyphname = A.left;
lastChange = "2021-05-28 11:49:01 +0000";
layers = (
{
layerId = "6F88C01E-B907-4531-B067-43292AD644AF";
paths = (
{
closed = 1;
nodes = (
"-99.878 246.905 LINE SMOOTH",
"-100.665 241.562 OFFCURVE",
"-97.59 238 OFFCURVE",
"-92.19 238 CURVE SMOOTH",
"12.81 238 LINE SMOOTH",
"17.61 238 OFFCURVE",
"21.196 241.177 OFFCURVE",
"21.775 245.942 CURVE SMOOTH",
"64.81 600 LINE",
"164.81 600 LINE",
"236.844 7.942 LINE SMOOTH",
"237.424 3.177 OFFCURVE",
"241.01 0 OFFCURVE",
"245.81 0 CURVE SMOOTH",
"355.81 0 LINE SMOOTH",
"361.21 0 OFFCURVE",
"364.295 3.563 OFFCURVE",
"363.523 8.908 CURVE SMOOTH",
"269.452 660.17 LINE SMOOTH",
"264.267 696.068 OFFCURVE",
"236.629 720 OFFCURVE",
"200.359 720 CURVE SMOOTH",
"30.261 720 LINE SMOOTH",
"-6.009 720 OFFCURVE",
"-33.714 696.077 OFFCURVE",
"-39 660.193 CURVE SMOOTH"
);
}
);
width = 413.64;
}
);
rightKerningGroup = A;
},
{
glyphname = A.right;
lastChange = "2021-05-28 11:49:09 +0000";
layers = (
{
layerId = "6F88C01E-B907-4531-B067-43292AD644AF";
paths = (
{
closed = 1;
nodes = (
"513.518 246.905 LINE SMOOTH",
"514.305 241.562 OFFCURVE",
"511.23 238 OFFCURVE",
"505.83 238 CURVE SMOOTH",
"400.83 238 LINE SMOOTH",
"396.03 238 OFFCURVE",
"392.444 241.177 OFFCURVE",
"391.865 245.942 CURVE SMOOTH",
"348.83 600 LINE",
"248.83 600 LINE",
"176.796 7.942 LINE SMOOTH",
"176.217 3.177 OFFCURVE",
"172.63 0 OFFCURVE",
"167.83 0 CURVE SMOOTH",
"57.83 0 LINE SMOOTH",
"52.43 0 OFFCURVE",
"49.345 3.563 OFFCURVE",
"50.117 8.908 CURVE SMOOTH",
"144.188 660.17 LINE SMOOTH",
"149.373 696.068 OFFCURVE",
"177.011 720 OFFCURVE",
"213.281 720 CURVE SMOOTH",
"383.379 720 LINE SMOOTH",
"419.649 720 OFFCURVE",
"447.354 696.077 OFFCURVE",
"452.64 660.193 CURVE SMOOTH"
);
}
);
width = 413.64;
}
);
leftKerningGroup = A;
},
{
glyphname = C.ss01;
lastChange = "2021-05-28 11:15:04 +0000";
layers = (
{
hints = (
{
horizontal = 1;
origin = "{0, 3}";
target = "{1, 0}";
type = Stem;
},
{
origin = "{0, 20}";
target = "{0, 13}";
type = Stem;
}
);
layerId = "6F88C01E-B907-4531-B067-43292AD644AF";
paths = (
{
closed = 1;
nodes = (
"70 472 LINE SMOOTH",
"70 476.8 OFFCURVE",
"73.2 480 OFFCURVE",
"78 480 CURVE SMOOTH",
"182 480 LINE SMOOTH",
"186.8 480 OFFCURVE",
"190 476.8 OFFCURVE",
"190 472 CURVE SMOOTH",
"190 118 LINE",
"502 118 LINE SMOOTH",
"506.8 118 OFFCURVE",
"510 114.8 OFFCURVE",
"510 110 CURVE SMOOTH",
"510 60 LINE SMOOTH",
"510 24 OFFCURVE",
"486 0 OFFCURVE",
"450 0 CURVE SMOOTH",
"129.982 0 LINE SMOOTH",
"93.993 0 OFFCURVE",
"70 23.995 OFFCURVE",
"70 59.988 CURVE SMOOTH"
);
},
{
closed = 1;
nodes = (
"77.748 602 LINE SMOOTH",
"73.099 602 OFFCURVE",
"70 605.099 OFFCURVE",
"70 609.748 CURVE SMOOTH",
"70 660.012 LINE SMOOTH",
"70 696.005 OFFCURVE",
"93.993 720 OFFCURVE",
"129.982 720 CURVE SMOOTH",
"450 720 LINE SMOOTH",
"486 720 OFFCURVE",
"510 696 OFFCURVE",
"510 660 CURVE SMOOTH",
"510 610 LINE SMOOTH",
"510 605.2 OFFCURVE",
"506.8 602 OFFCURVE",
"502 602 CURVE SMOOTH"
);
}
);
width = 570;
}
);
rightKerningGroup = C;
},
{
glyphname = M.ss01;
lastChange = "2021-05-27 10:17:11 +0000";
layers = (
{
hints = (
{
horizontal = 1;
origin = "{0, 3}";
target = "{1, 0}";
type = Stem;
},
{
origin = "{0, 15}";
target = "{1, 12}";
type = Stem;
}
);
layerId = "6F88C01E-B907-4531-B067-43292AD644AF";
paths = (
{
closed = 1;
nodes = (
"70 472 LINE SMOOTH",
"70 476.8 OFFCURVE",
"73.2 480 OFFCURVE",
"78 480 CURVE SMOOTH",
"182 480 LINE SMOOTH",
"186.8 480 OFFCURVE",
"190 476.8 OFFCURVE",
"190 472 CURVE SMOOTH",
"190 8 LINE SMOOTH",
"190 3.2 OFFCURVE",
"186.8 0 OFFCURVE",
"182 0 CURVE SMOOTH",
"78 0 LINE SMOOTH",
"73.2 0 OFFCURVE",
"70 3.2 OFFCURVE",
"70 8 CURVE SMOOTH"
);
},
{
closed = 1;
nodes = (
"78 602 LINE SMOOTH",
"73.2 602 OFFCURVE",
"70 605.2 OFFCURVE",
"70 610 CURVE SMOOTH",
"70 712 LINE SMOOTH",
"70 716.8 OFFCURVE",
"73.2 720 OFFCURVE",
"78 720 CURVE SMOOTH",
"609.549 720 LINE SMOOTH",
"645.819 720 OFFCURVE",
"670 695.82 OFFCURVE",
"670 659.549 CURVE SMOOTH",
"670 8 LINE SMOOTH",
"670 3.2 OFFCURVE",
"666.8 0 OFFCURVE",
"662 0 CURVE SMOOTH",
"558 0 LINE SMOOTH",
"553.2 0 OFFCURVE",
"550 3.2 OFFCURVE",
"550 8 CURVE SMOOTH",
"550 602 LINE"
);
}
);
width = 740;
}
);
leftKerningGroup = O;
rightKerningGroup = O;
},
{
glyphname = N.ss01;
lastChange = "2021-05-27 10:17:16 +0000";
layers = (
{
hints = (
{
horizontal = 1;
origin = "{0, 3}";
target = "{1, 0}";
type = Stem;
},
{
origin = "{0, 8}";
target = "{1, 19}";
type = Stem;
}
);
layerId = "6F88C01E-B907-4531-B067-43292AD644AF";
paths = (
{
closed = 1;
nodes = (
"70 472 LINE SMOOTH",
"70 476.8 OFFCURVE",
"73.2 480 OFFCURVE",
"78 480 CURVE SMOOTH",
"182 480 LINE SMOOTH",
"186.8 480 OFFCURVE",
"190 476.8 OFFCURVE",
"190 472 CURVE SMOOTH",
"190 8 LINE SMOOTH",
"190 3.2 OFFCURVE",
"186.8 0 OFFCURVE",
"182 0 CURVE SMOOTH",
"80 0 LINE SMOOTH",
"74 0 OFFCURVE",
"70 4 OFFCURVE",
"70 10 CURVE SMOOTH"
);
},
{
closed = 1;
nodes = (
"79.93 602 LINE SMOOTH",
"73.972 602 OFFCURVE",
"70 605.972 OFFCURVE",
"70 611.931 CURVE SMOOTH",
"70 712 LINE SMOOTH",
"70 716.8 OFFCURVE",
"73.2 720 OFFCURVE",
"78 720 CURVE SMOOTH",
"489.549 720 LINE SMOOTH",
"525.82 720 OFFCURVE",
"550 695.82 OFFCURVE",
"550 659.549 CURVE SMOOTH",
"550 8 LINE SMOOTH",
"550 3.2 OFFCURVE",
"546.8 0 OFFCURVE",
"542 0 CURVE SMOOTH",
"438 0 LINE SMOOTH",
"433.2 0 OFFCURVE",
"430 3.2 OFFCURVE",
"430 8 CURVE SMOOTH",
"430 602 LINE"
);
}
);
width = 620;
}
);
leftKerningGroup = O;
rightKerningGroup = O;
},
{
glyphname = M.ss02;
lastChange = "2021-05-27 10:22:27 +0000";
layers = (
{
hints = (
{
horizontal = 1;
place = "{602, 2000}";
type = Stem;
},
{
horizontal = 1;
origin = "{0, 10}";
target = "{0, 29}";
type = Stem;
},
{
origin = "{0, 0}";
target = "{0, 7}";
type = Stem;
},
{
origin = "{0, 12}";
target = "{0, 19}";
type = Stem;
}
);
layerId = "6F88C01E-B907-4531-B067-43292AD644AF";
paths = (
{
closed = 1;
nodes = (
"70 8 LINE SMOOTH",
"70 3.2 OFFCURVE",
"73.2 0 OFFCURVE",
"78 0 CURVE SMOOTH",
"182 0 LINE SMOOTH",
"186.8 0 OFFCURVE",
"190 3.2 OFFCURVE",
"190 8 CURVE SMOOTH",
"190 602 LINE",
"290.996 602 LINE",
"412.996 542 LINE",
"550 542 LINE",
"550 8 LINE SMOOTH",
"550 3.2 OFFCURVE",
"553.2 0 OFFCURVE",
"558 0 CURVE SMOOTH",
"662 0 LINE SMOOTH",
"666.8 0 OFFCURVE",
"670 3.2 OFFCURVE",
"670 8 CURVE SMOOTH",
"670 599.549 LINE SMOOTH",
"670 635.82 OFFCURVE",
"645.819 660 OFFCURVE",
"609.549 660 CURVE SMOOTH",
"438 660 LINE",
"309 720 LINE",
"130.44 720.011 LINE SMOOTH",
"94.17 720.011 OFFCURVE",
"69.989 695.831 OFFCURVE",
"69.989 659.56 CURVE SMOOTH"
);
}
);
width = 740;
}
);
leftKerningGroup = A;
rightKerningGroup = A;
},
{
glyphname = zero;
lastChange = "2021-05-27 10:26:44 +0000";
layers = (
{
hints = (
{
horizontal = 1;
origin = "{0, 4}";
target = "{0, 11}";
type = Stem;
},
{
origin = "{0, 0}";
target = "{0, 23}";
type = Stem;
},
{
origin = "{0, 26}";
target = "{0, 23}";
type = Stem;
}
);
layerId = "6F88C01E-B907-4531-B067-43292AD644AF";
paths = (
{
closed = 1;
nodes = (
"280 8 LINE SMOOTH",
"280 3.2 OFFCURVE",
"276.8 0 OFFCURVE",
"272 0 CURVE SMOOTH",
"130.451 0 LINE SMOOTH",
"94.18 0 OFFCURVE",
"70 24.18 OFFCURVE",
"70 60.451 CURVE SMOOTH",
"70 659.549 LINE SMOOTH",
"70 695.82 OFFCURVE",
"94.18 720 OFFCURVE",
"130.451 720 CURVE SMOOTH",
"459.549 720 LINE SMOOTH",
"495.82 720 OFFCURVE",
"520 695.82 OFFCURVE",
"520 659.549 CURVE SMOOTH",
"520 60.451 LINE SMOOTH",
"520 24.18 OFFCURVE",
"495.82 0 OFFCURVE",
"459.549 0 CURVE SMOOTH",
"408 0 LINE SMOOTH",
"403.2 0 OFFCURVE",
"400 3.2 OFFCURVE",
"400 8 CURVE SMOOTH",
"400 602 LINE",
"190 602 LINE",
"190 118 LINE",
"272 118 LINE SMOOTH",
"276.8 118 OFFCURVE",
"280 114.8 OFFCURVE",
"280 110 CURVE SMOOTH"
);
}
);
width = 590;
}
);
leftKerningGroup = O;
rightKerningGroup = O;
unicode = 0030;
},
{
glyphname = one;
lastChange = "2021-05-28 11:58:33 +0000";
layers = (
{
hints = (
{
horizontal = 1;
origin = "{0, 8}";
target = "{0, 20}";
type = Stem;
},
{
origin = "{0, 16}";
target = "{0, 4}";
type = Stem;
}
);
layerId = "6F88C01E-B907-4531-B067-43292AD644AF";
paths = (
{
closed = 1;
nodes = (
"239.55 720 LINE SMOOTH",
"275.82 720 OFFCURVE",
"300 695.82 OFFCURVE",
"300 659.549 CURVE SMOOTH",
"300 8 LINE SMOOTH",
"300 3.2 OFFCURVE",
"296.8 0 OFFCURVE",
"292 0 CURVE SMOOTH",
"188 0 LINE SMOOTH",
"183.2 0 OFFCURVE",
"180 3.2 OFFCURVE",
"180 8 CURVE SMOOTH",
"180 602 LINE",
"68 602 LINE SMOOTH",
"63.2 602 OFFCURVE",
"60 605.2 OFFCURVE",
"60 610 CURVE SMOOTH",
"60 712 LINE SMOOTH",
"60 716.8 OFFCURVE",
"63.2 720 OFFCURVE",
"68 720 CURVE SMOOTH"
);
}
);
width = 370;
}
);
rightKerningGroup = O;
unicode = 0031;
},
{
glyphname = two;
lastChange = "2021-05-26 10:07:12 +0000";
layers = (
{
hints = (
{
horizontal = 1;
origin = "{0, 20}";
target = "{0, 8}";
type = Stem;
},
{
horizontal = 1;
origin = "{1, 15}";
target = "{1, 8}";
type = Stem;
},
{
origin = "{0, 17}";
target = "{0, 8}";
type = Stem;
},
{
origin = "{1, 17}";
target = "{1, 3}";
type = Stem;
}
);
layerId = "6F88C01E-B907-4531-B067-43292AD644AF";
paths = (
{
closed = 1;
nodes = (
"492 0 LINE SMOOTH",
"496.8 0 OFFCURVE",
"500 3.2 OFFCURVE",
"500 8 CURVE SMOOTH",
"500 110 LINE SMOOTH",
"500 114.8 OFFCURVE",
"496.8 118 OFFCURVE",
"492 118 CURVE SMOOTH",
"180 118 LINE",
"180 332 LINE SMOOTH",
"180 336.8 OFFCURVE",
"176.8 340 OFFCURVE",
"172 340 CURVE SMOOTH",
"120.451 340 LINE SMOOTH",
"84.18 340 OFFCURVE",
"60 315.82 OFFCURVE",
"60 279.549 CURVE SMOOTH",
"60 60.451 LINE SMOOTH",
"60 24.18 OFFCURVE",
"84.181 0 OFFCURVE",
"120.451 0 CURVE SMOOTH"
);
},
{
closed = 1;
nodes = (
"419.549 340 LINE SMOOTH",
"455.82 340 OFFCURVE",
"480 364.181 OFFCURVE",
"480 400.452 CURVE SMOOTH",
"480 659.548 LINE SMOOTH",
"480 695.819 OFFCURVE",
"455.819 720 OFFCURVE",
"419.549 720 CURVE SMOOTH",
"78.001 720 LINE SMOOTH",
"73.2 720 OFFCURVE",
"70 716.8 OFFCURVE",
"70 712 CURVE SMOOTH",
"70 610 LINE SMOOTH",
"70 605.2 OFFCURVE",
"73.2 602 OFFCURVE",
"78 602 CURVE SMOOTH",
"360 602 LINE",
"360 348 LINE SMOOTH",
"360 343.2 OFFCURVE",
"363.2 340 OFFCURVE",
"368 340 CURVE SMOOTH"
);
}
);
width = 550;
}
);
unicode = 0032;
},
{
glyphname = three;
lastChange = "2021-05-26 10:20:26 +0000";
layers = (
{
hints = (
{
horizontal = 1;
origin = "{0, 11}";
target = "{0, 4}";
type = Stem;
},
{
horizontal = 1;
origin = "{1, 21}";
target = "{1, 14}";
type = Stem;
},
{
horizontal = 1;
origin = "{1, 11}";
target = "{1, 4}";
type = Stem;
},
{
origin = "{1, 13}";
target = "{0, 15}";
type = Stem;
}
);
layerId = "6F88C01E-B907-4531-B067-43292AD644AF";
paths = (
{
closed = 1;
nodes = (
"480 110 LINE SMOOTH",
"480 114.8 OFFCURVE",
"476.8 118 OFFCURVE",
"472 118 CURVE SMOOTH",
"68 118 LINE SMOOTH",
"63.2 118 OFFCURVE",
"60 114.8 OFFCURVE",
"60 110 CURVE SMOOTH",
"60 8 LINE SMOOTH",
"60 3.2 OFFCURVE",
"63.2 0 OFFCURVE",
"68 0 CURVE SMOOTH",
"419.549 0 LINE SMOOTH",
"455.819 0 OFFCURVE",
"480 24.181 OFFCURVE",
"480 60.451 CURVE SMOOTH"
);
},
{
closed = 1;
nodes = (
"480 659.549 LINE SMOOTH",
"480 695.819 OFFCURVE",
"455.819 720 OFFCURVE",
"419.549 720 CURVE SMOOTH",
"68 720 LINE SMOOTH",
"63.2 720 OFFCURVE",
"60 716.8 OFFCURVE",
"60 712 CURVE SMOOTH",
"60 610 LINE SMOOTH",
"60 605.2 OFFCURVE",
"63.2 602 OFFCURVE",
"68.001 602 CURVE SMOOTH",
"360 602 LINE",
"360 399 LINE",
"188 399 LINE SMOOTH",
"183.2 399 OFFCURVE",
"180 395.8 OFFCURVE",
"180 391 CURVE SMOOTH",
"180 289 LINE SMOOTH",
"180 284.2 OFFCURVE",
"183.2 281 OFFCURVE",
"188.001 281 CURVE SMOOTH",
"471.999 281 LINE SMOOTH",
"476.8 281 OFFCURVE",
"480 284.2 OFFCURVE",
"480 289 CURVE SMOOTH"
);
}
);
width = 550;
}
);
rightKerningGroup = O;
unicode = 0033;
},
{
glyphname = four;
lastChange = "2021-05-28 11:45:23 +0000";
layers = (
{
hints = (
{
horizontal = 1;
origin = "{0, 13}";
target = "{0, 8}";
type = Stem;
},
{
origin = "{0, 3}";
target = "{0, 8}";
type = Stem;
},
{
origin = "{0, 11}";
target = "{0, 10}";
type = Stem;
}
);
layerId = "6F88C01E-B907-4531-B067-43292AD644AF";
paths = (
{
closed = 1;
nodes = (
"93.995 282.018 OFFCURVE",
"70 306.011 OFFCURVE",
"70 342 CURVE SMOOTH",
"70 660.018 LINE SMOOTH",
"70 696.007 OFFCURVE",
"93.995 720 OFFCURVE",
"129.988 720 CURVE SMOOTH",
"190 720 LINE",
"190 398 LINE",
"480 398 LINE",
"480 0 LINE",
"360 0 LINE",
"360 282 LINE",
"129.988 282.018 LINE SMOOTH"
);
}
);
width = 550;
}
);
unicode = 0034;
},
{
glyphname = five;
lastChange = "2021-05-27 10:48:36 +0000";
layers = (
{
hints = (
{
horizontal = 1;
origin = "{1, 15}";
target = "{1, 18}";
type = Stem;
},
{
horizontal = 1;
origin = "{1, 25}";
target = "{0, 0}";
type = Stem;
},
{
origin = "{1, 11}";
target = "{1, 4}";
type = Stem;
}
);
layerId = "6F88C01E-B907-4531-B067-43292AD644AF";
paths = (
{
closed = 1;
nodes = (
"78 602 LINE SMOOTH",
"73.2 602 OFFCURVE",
"70 605.2 OFFCURVE",
"70 610 CURVE SMOOTH",
"70 659.549 LINE SMOOTH",
"70 695.819 OFFCURVE",
"94.181 720 OFFCURVE",
"130.452 720 CURVE SMOOTH",
"462 720 LINE SMOOTH",
"466.8 720 OFFCURVE",
"470 716.8 OFFCURVE",
"470 712 CURVE SMOOTH",
"470 610 LINE SMOOTH",
"470 605.2 OFFCURVE",
"466.8 602 OFFCURVE",
"462 602 CURVE SMOOTH"
);
},
{
closed = 1;
nodes = (
"420 420 LINE SMOOTH",
"456 420 OFFCURVE",
"480 396 OFFCURVE",
"480 360 CURVE SMOOTH",
"480 59.987 LINE SMOOTH",
"480 23.995 OFFCURVE",
"456.005 0 OFFCURVE",
"420.012 0 CURVE SMOOTH",
"68 0 LINE SMOOTH",
"63.2 0 OFFCURVE",
"60 3.2 OFFCURVE",
"60 8 CURVE SMOOTH",
"60 110 LINE SMOOTH",
"60 114.8 OFFCURVE",
"63.2 118 OFFCURVE",
"68.001 118 CURVE SMOOTH",
"360 118 LINE",
"360 301 LINE",
"132 301 LINE SMOOTH",
"96 301 OFFCURVE",
"72 325 OFFCURVE",
"72 361 CURVE SMOOTH",
"72 412 LINE SMOOTH",
"72 416.8 OFFCURVE",
"75.2 420 OFFCURVE",
"80 420 CURVE SMOOTH"
);
}
);
width = 550;
}
);
unicode = 0035;
},
{
glyphname = six;
lastChange = "2021-05-28 11:57:26 +0000";
layers = (
{
hints = (
{
horizontal = 1;
origin = "{0, 21}";
target = "{0, 24}";
type = Stem;
},
{
origin = "{0, 17}";
target = "{0, 10}";
type = Stem;
}
);
layerId = "6F88C01E-B907-4531-B067-43292AD644AF";
paths = (
{
closed = 1;
nodes = (
"164.32 712.462 LINE SMOOTH",
"165.928 716.985 OFFCURVE",
"170.199 720 OFFCURVE",
"174.998 720 CURVE SMOOTH",
"297 720 LINE",
"190 419 LINE",
"420 419 LINE SMOOTH",
"456 419 OFFCURVE",
"480 395 OFFCURVE",
"480 358.999 CURVE SMOOTH",
"480 60.001 LINE SMOOTH",
"480 24 OFFCURVE",
"456 0 OFFCURVE",
"420 0 CURVE SMOOTH",
"120 0 LINE SMOOTH",
"84 0 OFFCURVE",
"60 24 OFFCURVE",
"60 60 CURVE SMOOTH",
"60 110 LINE SMOOTH",
"60 114.8 OFFCURVE",
"63.2 118 OFFCURVE",
"68 118 CURVE SMOOTH",
"360 118 LINE",
"360 301 LINE",
"68 301 LINE SMOOTH",
"63.2 301 OFFCURVE",
"60 304.2 OFFCURVE",
"60 309 CURVE SMOOTH",
"60 419 LINE"
);
}
);
width = 550;
}
);
unicode = 0036;
},
{
glyphname = seven;
lastChange = "2021-05-28 11:50:45 +0000";
layers = (
{
hints = (
{
horizontal = 1;
place = "{602, 118}";
type = Stem;
},
{
place = "{340, 120}";
type = Stem;
}
);
layerId = "6F88C01E-B907-4531-B067-43292AD644AF";
paths = (
{
closed = 1;
nodes = (
"302 0 LINE SMOOTH",
"306.8 0 OFFCURVE",
"311.068 3.016 OFFCURVE",
"312.671 7.541 CURVE SMOOTH",
"480 480 LINE",
"360 480 LINE SMOOTH",
"355.2 480 OFFCURVE",
"350.893 476.998 OFFCURVE",
"349.232 472.495 CURVE SMOOTH",
"175 0 LINE"
);
},
{
closed = 1;
nodes = (
"500 659.549 LINE SMOOTH",
"500 695.82 OFFCURVE",
"475.819 720 OFFCURVE",
"439.549 720 CURVE SMOOTH",
"68 720 LINE SMOOTH",
"63.2 720 OFFCURVE",
"60 716.8 OFFCURVE",
"60 712 CURVE SMOOTH",
"60 608 LINE SMOOTH",
"60 603.2 OFFCURVE",
"63.2 600 OFFCURVE",
"68 600 CURVE SMOOTH",
"492 600 LINE SMOOTH",
"496.8 600 OFFCURVE",
"500 603.2 OFFCURVE",
"500 608 CURVE SMOOTH"
);
}
);
width = 570;
}
);
unicode = 0037;
},
{
glyphname = eight;
lastChange = "2021-05-27 10:22:55 +0000";
layers = (
{
hints = (
{
horizontal = 1;
origin = "{1, 21}";
target = "{1, 9}";
type = Stem;
},
{
horizontal = 1;
origin = "{0, 20}";
target = "{0, 8}";
type = Stem;
},
{
origin = "{1, 18}";
target = "{1, 9}";
type = Stem;
},
{
origin = "{1, 8}";
target = "{1, 25}";
type = Stem;
}
);
layerId = "6F88C01E-B907-4531-B067-43292AD644AF";
paths = (
{
closed = 1;
nodes = (
"470 419 LINE SMOOTH",
"506 419 OFFCURVE",
"530 443 OFFCURVE",
"530 479 CURVE SMOOTH",
"530 659.549 LINE SMOOTH",
"530 695.82 OFFCURVE",
"505.82 720 OFFCURVE",
"469.549 720 CURVE SMOOTH",
"130.451 720 LINE SMOOTH",
"94.18 720 OFFCURVE",
"70 695.82 OFFCURVE",
"70 659.549 CURVE SMOOTH",
"70 479 LINE SMOOTH",
"70 443 OFFCURVE",
"94 419 OFFCURVE",
"130 419 CURVE SMOOTH",
"182 419 LINE SMOOTH",
"186.8 419 OFFCURVE",
"190 422.2 OFFCURVE",
"190 427 CURVE SMOOTH",
"190 602 LINE",
"410 602 LINE",
"410 427 LINE SMOOTH",
"410 422.2 OFFCURVE",
"413.2 419 OFFCURVE",
"418 419 CURVE SMOOTH"
);
},
{
closed = 1;
nodes = (
"530 239 LINE SMOOTH",
"530 275 OFFCURVE",
"506 299 OFFCURVE",
"470 299 CURVE SMOOTH",
"418 299 LINE SMOOTH",
"413.2 299 OFFCURVE",
"410 295.8 OFFCURVE",
"410 291 CURVE SMOOTH",
"410 118 LINE",
"190 118 LINE",
"190 291 LINE SMOOTH",
"190 295.8 OFFCURVE",
"186.8 299 OFFCURVE",
"182 299 CURVE SMOOTH",
"130 299 LINE SMOOTH",
"94 299 OFFCURVE",
"70 275 OFFCURVE",
"70 239 CURVE SMOOTH",
"70 60 LINE SMOOTH",
"70 24 OFFCURVE",
"94 0 OFFCURVE",
"130 0 CURVE SMOOTH",
"470 0 LINE SMOOTH",
"506 0 OFFCURVE",
"530 24 OFFCURVE",
"530 60 CURVE SMOOTH"
);
}
);
width = 600;
}
);
leftKerningGroup = O;
unicode = 0038;
},
{
glyphname = nine;
lastChange = "2021-05-28 11:45:27 +0000";
layers = (
{
associatedMasterId = "6F88C01E-B907-4531-B067-43292AD644AF";
layerId = "3A6850F4-BD76-4524-9D90-1E2858CDA3B4";
name = "Schräger";
paths = (
{
closed = 1;
nodes = (
"470 659.549 LINE SMOOTH",
"470 695.82 OFFCURVE",
"445.819 720 OFFCURVE",
"409.548 720 CURVE SMOOTH",
"130.452 720 LINE SMOOTH",
"94.181 720 OFFCURVE",
"70 695.819 OFFCURVE",
"70 659.549 CURVE SMOOTH",
"70 360.451 LINE SMOOTH",
"70 324.181 OFFCURVE",
"94.181 300 OFFCURVE",
"130.451 300 CURVE SMOOTH",
"330 300 LINE",
"100 0 LINE",
"250 0 LINE",
"470 300 LINE",
"470 420 LINE",
"190 420 LINE",
"190 600 LINE",
"470 600 LINE"
);
}
);
width = 530;
},
{
associatedMasterId = "6F88C01E-B907-4531-B067-43292AD644AF";
layerId = "A58B7DAE-DA56-4F34-B9A7-E4A33167D947";
name = "Alt 2";
paths = (
{
closed = 1;
nodes = (
"130.451 280 LINE SMOOTH",
"94.18 280 OFFCURVE",
"70 304.181 OFFCURVE",
"70 340.451 CURVE SMOOTH",
"70 659.549 LINE SMOOTH",
"70 695.819 OFFCURVE",
"94.181 720 OFFCURVE",
"130.451 720 CURVE SMOOTH",
"449.549 720 LINE SMOOTH",
"485.819 720 OFFCURVE",
"510 695.82 OFFCURVE",
"510 659.549 CURVE SMOOTH",
"510 600 LINE",
"510 530 LINE",
"390 530 LINE",
"390 600 LINE",
"190 600 LINE",
"190 400 LINE",
"510 400 LINE",
"510 280 LINE",
"397 0 LINE",
"267 0 LINE",
"380 280 LINE"
);
}
);
width = 570;
},
{
hints = (
{
horizontal = 1;
origin = "{0, 17}";
target = "{0, 16}";
type = Stem;
},
{
origin = "{0, 17}";
target = "{0, 29}";
type = Stem;
}
);
layerId = "6F88C01E-B907-4531-B067-43292AD644AF";
paths = (
{
closed = 1;
nodes = (
"120 300 LINE SMOOTH",
"84 300 OFFCURVE",
"60 324 OFFCURVE",
"60 360 CURVE SMOOTH",
"60 660 LINE SMOOTH",
"60 696 OFFCURVE",
"84 720 OFFCURVE",
"120 720 CURVE SMOOTH",
"440 720 LINE SMOOTH",
"476 720 OFFCURVE",
"500 696 OFFCURVE",
"500 660 CURVE SMOOTH",
"500 608 LINE SMOOTH",
"500 603.2 OFFCURVE",
"496.8 600 OFFCURVE",
"492 600 CURVE SMOOTH",
"180 600 LINE",
"180 420 LINE",
"492 420 LINE SMOOTH",
"496.8 420 OFFCURVE",
"500 416.8 OFFCURVE",
"500 412 CURVE SMOOTH",
"500 8 LINE SMOOTH",
"500 3.2 OFFCURVE",
"496.8 0 OFFCURVE",
"492 0 CURVE SMOOTH",
"388 0 LINE SMOOTH",
"383.2 0 OFFCURVE",
"380 3.2 OFFCURVE",
"380 8.001 CURVE SMOOTH",
"380 300 LINE"
);
}
);
width = 570;
}
);
rightKerningGroup = O;
unicode = 0039;
},
{
glyphname = period;
lastChange = "2021-05-28 11:58:56 +0000";
layers = (
{
hints = (
{
horizontal = 1;
origin = "{0, 8}";
target = "{0, 15}";
type = Stem;
},
{
origin = "{0, 11}";
target = "{0, 4}";
type = Stem;
}
);
layerId = "6F88C01E-B907-4531-B067-43292AD644AF";
paths = (
{
closed = 1;
nodes = (
"212 120 LINE SMOOTH",
"216.8 120 OFFCURVE",
"220 116.8 OFFCURVE",
"220 112 CURVE SMOOTH",
"220 8 LINE SMOOTH",
"220 3.2 OFFCURVE",
"216.8 0 OFFCURVE",
"212 0 CURVE SMOOTH",
"108 0 LINE SMOOTH",
"103.2 0 OFFCURVE",
"100 3.2 OFFCURVE",
"100 8 CURVE SMOOTH",
"100 112 LINE SMOOTH",
"100 116.8 OFFCURVE",
"103.2 120 OFFCURVE",
"108 120 CURVE SMOOTH"
);
}
);
width = 320;
}
);
leftKerningGroup = period;
rightKerningGroup = period;
unicode = 002E;
},
{
glyphname = comma;
lastChange = "2021-05-28 11:59:33 +0000";
layers = (
{
hints = (
{
horizontal = 1;
origin = "{0, 7}";
target = "{0, 15}";
type = Stem;
},
{
origin = "{0, 11}";
target = "{0, 3}";
type = Stem;
}
);
layerId = "6F88C01E-B907-4531-B067-43292AD644AF";
paths = (
{
closed = 1;
nodes = (
"199.594 113.377 LINE SMOOTH",
"204.358 112.792 OFFCURVE",
"207.144 109.226 OFFCURVE",
"206.56 104.462 CURVE SMOOTH",
"179.26 -117.868 LINE SMOOTH",
"178.675 -122.633 OFFCURVE",
"175.109 -125.419 OFFCURVE",
"170.345 -124.834 CURVE SMOOTH",
"77.046 -113.377 LINE SMOOTH",
"72.282 -112.792 OFFCURVE",
"69.496 -109.226 OFFCURVE",
"70.08 -104.462 CURVE SMOOTH",
"97.38 117.868 LINE SMOOTH",
"97.965 122.633 OFFCURVE",
"101.531 125.419 OFFCURVE",
"106.295 124.834 CURVE SMOOTH"
);
}
);
width = 276.64;
}
);
leftKerningGroup = period;
rightKerningGroup = period;
unicode = 002C;
},
{
glyphname = colon;
lastChange = "2021-05-26 10:34:59 +0000";
layers = (
{
hints = (
{
horizontal = 1;
origin = "{1, 15}";
target = "{0, 8}";
type = Stem;
},
{
origin = "{1, 11}";
target = "{1, 4}";
type = Stem;
}
);
layerId = "6F88C01E-B907-4531-B067-43292AD644AF";
paths = (
{
closed = 1;
nodes = (
"212 419 LINE SMOOTH",
"216.8 419 OFFCURVE",
"220 415.8 OFFCURVE",
"220 411 CURVE SMOOTH",
"220 309 LINE SMOOTH",
"220 304.2 OFFCURVE",
"216.8 301 OFFCURVE",
"212 301 CURVE SMOOTH",
"108 301 LINE SMOOTH",
"103.2 301 OFFCURVE",
"100 304.2 OFFCURVE",
"100 309 CURVE SMOOTH",
"100 411 LINE SMOOTH",
"100 415.8 OFFCURVE",
"103.2 419 OFFCURVE",
"108 419 CURVE SMOOTH"
);
},
{
closed = 1;
nodes = (
"212 118 LINE SMOOTH",
"216.8 118 OFFCURVE",
"220 114.8 OFFCURVE",
"220 110 CURVE SMOOTH",
"220 8 LINE SMOOTH",
"220 3.2 OFFCURVE",
"216.8 0 OFFCURVE",
"212 0 CURVE SMOOTH",
"108 0 LINE SMOOTH",
"103.2 0 OFFCURVE",
"100 3.2 OFFCURVE",
"100 8 CURVE SMOOTH",
"100 110 LINE SMOOTH",
"100 114.8 OFFCURVE",
"103.2 118 OFFCURVE",
"108 118 CURVE SMOOTH"
);
}
);
width = 290;
}
);
unicode = 003A;
},
{
glyphname = exclam;
layers = (
{
layerId = "6F88C01E-B907-4531-B067-43292AD644AF";
paths = (
{
closed = 1;
nodes = (
"212 719 LINE SMOOTH",
"216.8 719 OFFCURVE",
"220 715.8 OFFCURVE",
"220 711 CURVE SMOOTH",
"220 248 LINE SMOOTH",
"220 243.2 OFFCURVE",
"216.8 240 OFFCURVE",
"212 240 CURVE SMOOTH",
"108 240 LINE SMOOTH",
"103.2 240 OFFCURVE",
"100 243.2 OFFCURVE",
"100 248 CURVE SMOOTH",
"100 711 LINE SMOOTH",
"100 715.8 OFFCURVE",
"103.2 719 OFFCURVE",
"108 719 CURVE SMOOTH"
);
},
{
closed = 1;
nodes = (
"212 120 LINE SMOOTH",
"216.8 120 OFFCURVE",
"220 116.8 OFFCURVE",
"220 112 CURVE SMOOTH",
"220 8 LINE SMOOTH",
"220 3.2 OFFCURVE",
"216.8 0 OFFCURVE",
"212 0 CURVE SMOOTH",
"108 0 LINE SMOOTH",
"103.2 0 OFFCURVE",
"100 3.2 OFFCURVE",
"100 8 CURVE SMOOTH",
"100 112 LINE SMOOTH",
"100 116.8 OFFCURVE",
"103.2 120 OFFCURVE",
"108 120 CURVE SMOOTH"
);
}
);
width = 290;
}
);
unicode = 0021;
},
{
glyphname = slash;
lastChange = "2021-05-27 10:52:02 +0000";
layers = (
{
hints = (
{
horizontal = 1;
origin = "{0, 7}";
target = "{0, 15}";
type = Stem;
},
{
origin = "{0, 11}";
target = "{0, 3}";
type = Stem;
}
);
layerId = "6F88C01E-B907-4531-B067-43292AD644AF";
paths = (
{
closed = 1;
nodes = (
"276.373 771.029 LINE SMOOTH",
"281.137 770.444 OFFCURVE",
"283.923 766.878 OFFCURVE",
"283.339 762.114 CURVE SMOOTH",
"179.261 -85.52 LINE SMOOTH",
"178.676 -90.285 OFFCURVE",
"175.111 -93.071 OFFCURVE",
"170.346 -92.486 CURVE SMOOTH",
"77.047 -81.029 LINE SMOOTH",
"72.283 -80.444 OFFCURVE",
"69.497 -76.878 OFFCURVE",
"70.081 -72.114 CURVE SMOOTH",
"174.159 775.52 LINE SMOOTH",
"174.744 780.285 OFFCURVE",
"178.309 783.071 OFFCURVE",
"183.074 782.486 CURVE SMOOTH"
);
}
);
width = 353.42;
}
);
unicode = 002F;
},
{
glyphname = backslash;
lastChange = "2021-05-27 10:52:50 +0000";
layers = (
{
hints = (
{
horizontal = 1;
origin = "{0, 7}";
target = "{0, 15}";
type = Stem;
},
{
origin = "{0, 11}";
target = "{0, 3}";
type = Stem;
}
);
layerId = "6F88C01E-B907-4531-B067-43292AD644AF";
paths = (
{
closed = 1;
nodes = (
"175.111 783.071 OFFCURVE",
"178.676 780.285 OFFCURVE",
"179.261 775.52 CURVE SMOOTH",
"283.339 -72.114 LINE SMOOTH",
"283.923 -76.878 OFFCURVE",
"281.137 -80.444 OFFCURVE",
"276.373 -81.029 CURVE SMOOTH",
"183.074 -92.486 LINE SMOOTH",
"178.309 -93.071 OFFCURVE",
"174.744 -90.285 OFFCURVE",
"174.159 -85.52 CURVE SMOOTH",
"70.081 762.114 LINE SMOOTH",
"69.497 766.878 OFFCURVE",
"72.283 770.444 OFFCURVE",
"77.047 771.029 CURVE SMOOTH",
"170.346 782.486 LINE SMOOTH"
);
}
);
width = 353.42;
}
);
unicode = 005C;
},
{
glyphname = hyphen;
lastChange = "2021-05-28 10:40:09 +0000";
layers = (
{
layerId = "6F88C01E-B907-4531-B067-43292AD644AF";
paths = (
{
closed = 1;
nodes = (
"50 391 LINE SMOOTH",
"50 395.8 OFFCURVE",
"53.2 399 OFFCURVE",
"58 399 CURVE SMOOTH",
"282 399 LINE SMOOTH",
"286.8 399 OFFCURVE",
"290 395.8 OFFCURVE",
"290 391 CURVE SMOOTH",
"290 289 LINE SMOOTH",
"290 284.2 OFFCURVE",
"286.8 281 OFFCURVE",
"282 281 CURVE SMOOTH",
"58 281 LINE SMOOTH",
"53.2 281 OFFCURVE",
"50 284.2 OFFCURVE",
"50 289 CURVE SMOOTH"
);
}
);
width = 340;
}
);
unicode = 002D;
},
